<svg width="32" height="32" viewBox="0 0 32 32" fill="none" xmlns="http://www.w3.org/2000/svg">
<g clip-path="url(#clip0_365_2)">
<path d="M2.25147 9.03822L1.87847 9.84034H0.800049V9.70311L3.02646 4.95996H3.50383L5.71671 9.70311V9.84034H4.64602L4.26529 9.03822H2.25147ZM2.58968 8.16845H3.93094L3.26031 6.57194L2.58968 8.16845Z" fill="#D2FF00"/>
<path d="M5.15625 5.89925V5.00049H8.73745V5.89925H7.45224V9.84028H6.44919V5.89925H5.15625Z" fill="#D2FF00"/>
<path d="M8.92676 5.89925V5.00049H12.508V5.89925H11.2227V9.84028H10.2197V5.89925H8.92676Z" fill="#D2FF00"/>
<path d="M15.1635 9.01883V9.84221H12.7573V9.01883H13.4415V5.80261H12.8134V5.00049H15.1094V5.80261H14.4812V9.0169H15.1654L15.1635 9.01883Z" fill="#D2FF00"/>
<path d="M16.8237 8.91446H18.8414V9.84028H15.7859V5.00049H16.8218V8.91253L16.8237 8.91446Z" fill="#D2FF00"/>
<path d="M20.4009 9.03822L20.0279 9.84034H18.9495V9.70311L21.1759 4.95996H21.6532L23.8661 9.70311V9.84034H22.7954L22.4147 9.03822H20.4028H20.4009ZM20.741 8.16845H22.0823L21.4117 6.57194L20.741 8.16845Z" fill="#D2FF00"/>
<path d="M0.966309 16.3755V17.2743H2.25925V21.2133H2.56268C2.62259 21.0742 2.70569 20.9428 2.80812 20.8191C2.93568 20.6664 3.08643 20.5291 3.26036 20.4093V17.2743H4.54558V16.3755H0.966309Z" fill="#D2FF00"/>
<path d="M6.69063 16.3325H6.21327L4.52026 19.9411C4.67488 19.9179 4.83529 19.9082 4.99956 19.9082C5.24887 19.9082 5.49625 19.9392 5.7359 19.9991C5.97941 20.0629 6.2036 20.1537 6.40266 20.2697C6.47611 20.3122 6.54375 20.3586 6.60753 20.4108H7.45209L7.83089 21.2129H8.90351V21.0757L6.69063 16.3325ZM5.77842 19.541L6.44905 17.9426L7.11968 19.541H5.77842Z" fill="#D2FF00"/>
<path d="M8.34497 16.3755V17.2743H9.63791V21.2133H10.639V17.2743H11.9262V16.3755H8.34497Z" fill="#D2FF00"/>
<path d="M12.1157 16.3755V17.2743H13.4087V21.2133H14.4098V17.2743H15.695V16.3755H12.1157Z" fill="#D2FF00"/>
<path d="M18.2423 16.2979C16.9571 16.2979 15.7607 17.1618 15.7607 18.7931C15.7607 20.4244 16.93 21.2961 18.2229 21.2961C19.6879 21.2961 20.7045 20.2659 20.7045 18.7931C20.7045 17.1696 19.5082 16.2979 18.2423 16.2979ZM18.2365 20.3491C17.4615 20.3491 16.8044 19.8523 16.8044 18.7931C16.8044 17.7339 17.4827 17.2527 18.2423 17.2527C19.0018 17.2527 19.6744 17.7649 19.6744 18.7931C19.6744 19.8214 18.9902 20.3491 18.2365 20.3491Z" fill="#D2FF00"/>
<path d="M23.5416 16.2979C22.2564 16.2979 21.0601 17.1618 21.0601 18.7931C21.0601 20.4244 22.2274 21.2961 23.5203 21.2961C24.9853 21.2961 26.0018 20.2659 26.0018 18.7931C26.0018 17.1696 24.8075 16.2979 23.5416 16.2979ZM23.5339 20.3491C22.7608 20.3491 22.1037 19.8523 22.1037 18.7931C22.1037 17.7339 22.782 17.2527 23.5416 17.2527C24.3011 17.2527 24.9717 17.7649 24.9717 18.7931C24.9717 19.8214 24.2876 20.3491 23.5339 20.3491Z" fill="#D2FF00"/>
<path d="M9.4834 26.0836L9.1104 26.8858H8.03198V26.7485L10.2584 22.0054H10.7358L12.9486 26.7485V26.8858H11.878L11.4972 26.0836H9.48534H9.4834ZM9.82162 25.2139H11.1629L10.4922 23.6173L9.82162 25.2139Z" fill="#D2FF00"/>
<path d="M17.2777 26.7354V26.8803H16.1722L15.1769 25.2838H14.313V26.8803H13.2751V22.0405C13.967 22.0405 14.6512 22.0328 15.3411 22.0405C16.4466 22.0405 17.0477 22.8427 17.0477 23.6989C17.0477 24.3135 16.7365 24.8528 16.1838 25.1234L17.2757 26.7334L17.2777 26.7354ZM15.3354 24.4334C15.7702 24.4334 16.0543 24.0951 16.0466 23.6796C16.0466 23.2718 15.776 22.947 15.3354 22.947H14.2995V24.4334H15.3354Z" fill="#D2FF00"/>
<path d="M17.3281 22.9471V22.0483H20.9093V22.9471H19.6241V26.8881H18.6211V22.9471H17.3281Z" fill="#D2FF00"/>
<path d="M3.9348 15.5771V13.5302H2.08139V15.5771H1.05322V10.7373H2.08333V12.5832H3.9348V10.7373H4.97264V15.5771H3.9348Z" fill="#D2FF00"/>
<path d="M8.06671 15.6599C6.77377 15.6599 5.60645 14.7882 5.60645 13.1569C5.60645 11.5256 6.80276 10.6616 8.08797 10.6616C9.37318 10.6616 10.5482 11.5333 10.5482 13.1569C10.5482 14.6297 9.53166 15.6599 8.06671 15.6599ZM8.08024 14.7128C8.83397 14.7128 9.51813 14.2142 9.51813 13.1569C9.51813 12.0996 8.8417 11.6145 8.08797 11.6145C7.33423 11.6145 6.65008 12.1325 6.65008 13.1569C6.65008 14.1813 7.30718 14.7128 8.08024 14.7128Z" fill="#D2FF00"/>
<path d="M15.1771 15.4243V15.5693H14.0716L13.0763 13.9728H12.2124V15.5693H11.1746V10.7295C11.8664 10.7295 12.5506 10.7218 13.2406 10.7295C14.346 10.7295 14.9471 11.5316 14.9471 12.3879C14.9471 13.0025 14.6359 13.5418 14.0832 13.8124L15.1751 15.4224L15.1771 15.4243ZM13.2348 13.1223C13.6696 13.1223 13.9537 12.7841 13.946 12.3685C13.946 11.9607 13.6754 11.636 13.2348 11.636H12.1989V13.1223H13.2348Z" fill="#D2FF00"/>
<path d="M17.332 13.8492L17.8441 12.301L18.4935 10.7393H19.5932V10.892L17.533 15.6196H17.1039L15.0225 10.892V10.7393H16.1221L16.7715 12.2952L17.3107 13.8511H17.332V13.8492Z" fill="#D2FF00"/>
<path d="M20.3545 14.775L19.9815 15.5772H18.9031V15.4399L21.1295 10.6968H21.6069L23.8197 15.4399V15.5772H22.7491L22.3683 14.775H20.3564H20.3545ZM20.6946 13.9033H22.0359L21.3653 12.3068L20.6946 13.9033Z" fill="#D2FF00"/>
<path d="M23.2612 11.6361V10.7373H26.8424V11.6361H25.5572V15.5771H24.5542V11.6361H23.2612Z" fill="#D2FF00"/>
<path d="M30.1221 15.5771V13.5302H28.2706V15.5771H27.2405V10.7373H28.2706V12.5832H30.1221V10.7373H31.1599V15.5771H30.1221Z" fill="#D2FF00"/>
<path d="M20.3198 25.5966C20.3198 23.7276 23.1048 23.7276 23.1048 25.5966C23.1048 27.4656 20.3198 27.4734 20.3198 25.5966ZM22.697 25.5966C22.697 24.2011 20.7295 24.2011 20.7295 25.5966C20.7295 26.9921 22.697 26.9882 22.697 25.5966ZM22.007 25.4381C21.9104 25.1463 21.435 25.2062 21.435 25.6005C21.435 25.9484 21.8601 26.0953 22.0109 25.7416L22.3433 25.7454C22.2293 26.4799 21.0774 26.4355 21.0774 25.5985C21.0774 24.7616 22.2216 24.7056 22.3336 25.4323L22.0051 25.4362L22.007 25.4381Z" fill="#D2FF00"/>
<path d="M7.91411 23.3333C7.8426 23.1999 7.73824 23.0936 7.60682 23.0144C7.47733 22.9332 7.32079 22.8946 7.14685 22.8946C7.01156 22.8946 6.88401 22.9274 6.76998 22.9951C6.65402 23.0646 6.56319 23.1497 6.49555 23.2579C6.42597 23.3642 6.39312 23.4783 6.39312 23.5962C6.39312 23.7257 6.42597 23.8494 6.48975 23.9615C6.55546 24.0736 6.64823 24.1664 6.76998 24.234C6.89174 24.3036 7.03282 24.3384 7.19903 24.3384C7.33625 24.3384 7.46767 24.3132 7.59329 24.263C7.66093 24.2359 7.71891 24.2031 7.77303 24.1664C7.77303 24.1779 7.76723 24.1876 7.76143 24.1973C7.7537 24.2147 7.7479 24.234 7.74017 24.2514C7.72858 24.2727 7.71891 24.2959 7.70732 24.321C7.68219 24.3732 7.6532 24.4253 7.62228 24.4795C7.47153 24.7307 7.26474 24.9801 7.0019 25.2275C6.93812 25.2874 6.87435 25.3434 6.8067 25.3995C6.74486 25.4517 6.68301 25.5 6.61924 25.5503C6.53033 25.6198 6.4395 25.6836 6.3448 25.7474C6.28295 25.788 6.22111 25.8266 6.15927 25.8672C6.1554 25.8672 6.1496 25.873 6.14574 25.875C6.13028 25.8866 6.11095 25.8943 6.09549 25.9059C6.01625 25.9542 5.93314 26.0006 5.85004 26.0431C5.76887 26.0856 5.68577 26.1262 5.60266 26.1668C5.60266 26.1668 5.5988 26.1668 5.59686 26.1668C5.51183 26.2074 5.42679 26.2422 5.33789 26.277C5.27604 26.3021 5.2142 26.3253 5.15042 26.3466C5.15042 26.3466 5.14656 26.3466 5.14462 26.3466C5.1195 26.3562 5.09631 26.364 5.07118 26.3717C5.04992 26.3794 5.0306 26.3852 5.00741 26.393C4.62281 26.5167 4.23241 26.5805 3.84009 26.5805C3.58884 26.5805 3.37432 26.5341 3.19458 26.4432C3.01678 26.3524 2.87376 26.2345 2.76167 26.0895C2.65151 25.9446 2.57033 25.788 2.51815 25.6179C2.46597 25.4459 2.44085 25.2816 2.44085 25.1231C2.44085 24.8544 2.4853 24.6109 2.57613 24.3886C2.6689 24.1683 2.79259 23.9731 2.95107 23.801C3.02837 23.7179 3.11341 23.6426 3.20424 23.571C3.21391 23.5633 3.22164 23.5575 3.23323 23.5517C3.26802 23.5247 3.30281 23.5015 3.33953 23.4783C3.37818 23.4531 3.41683 23.4299 3.45742 23.4087C3.47288 23.399 3.49028 23.3913 3.50574 23.3816L3.44003 23.2386C3.4207 23.2463 3.39944 23.2541 3.38205 23.2618C3.32407 23.285 3.26802 23.3082 3.21197 23.3314C3.1366 23.3623 3.06123 23.3932 2.98779 23.4241C2.83897 23.486 2.69596 23.5459 2.55294 23.6058C2.26884 23.7276 2.01566 23.8668 1.79341 24.0195C1.57115 24.1741 1.39528 24.3635 1.2658 24.5838C1.13824 24.8061 1.07446 25.0786 1.07446 25.4014C1.07446 25.7242 1.1653 25.9987 1.34503 26.2171C1.52477 26.4355 1.77408 26.5998 2.0949 26.7099C2.41379 26.8182 2.77906 26.8742 3.19265 26.8742C3.70287 26.8742 4.19376 26.8085 4.66726 26.681C4.73877 26.6616 4.81028 26.6404 4.87985 26.6191C4.92044 26.6056 4.96102 26.594 5.00161 26.5805C5.07312 26.5573 5.14656 26.5321 5.21806 26.507C5.28571 26.4819 5.35142 26.4567 5.41713 26.4297C5.48477 26.4026 5.54855 26.3756 5.61233 26.3466C5.67804 26.3195 5.73988 26.2886 5.80172 26.2577C5.8655 26.2267 5.92541 26.1958 5.98726 26.163C6.06843 26.1224 6.14767 26.076 6.22498 26.0315C6.24044 26.0199 6.25976 26.0122 6.27522 26.0006C6.3448 25.9581 6.41631 25.9156 6.48202 25.8692C6.54193 25.8324 6.59991 25.7938 6.65596 25.7513C6.66755 25.7435 6.67722 25.7358 6.68881 25.7281C6.75066 25.6856 6.80864 25.6392 6.86468 25.5947C6.93039 25.5425 6.99224 25.4903 7.05408 25.4362C7.35751 25.1676 7.59522 24.8892 7.76336 24.6012C7.93344 24.3152 8.01847 24.0407 8.01847 23.7779C8.01847 23.6174 7.98175 23.4686 7.91025 23.3333H7.91411ZM7.56237 26.132C7.48893 26.2654 7.38843 26.3756 7.26667 26.4645C7.14298 26.5534 7.01156 26.5959 6.87435 26.5959C6.76032 26.5959 6.66562 26.5708 6.58638 26.5186C6.50907 26.4664 6.44143 26.3968 6.38539 26.3118C6.32934 26.2248 6.27716 26.132 6.22884 26.0335V26.0296L6.1496 25.8711L4.68659 22.9622C4.92817 22.8636 5.16009 22.7651 5.38621 22.6665C5.63552 22.5602 5.8597 22.4423 6.0549 22.3186C6.2501 22.1949 6.40278 22.0518 6.51874 21.8895C6.63276 21.7271 6.68881 21.5358 6.68881 21.3174C6.68881 21.1434 6.64049 20.9888 6.54193 20.8516C6.44336 20.7143 6.31194 20.5964 6.14574 20.4998C6.08003 20.4611 6.01432 20.4283 5.94281 20.3993C5.83265 20.351 5.71669 20.3104 5.593 20.2775C5.39007 20.2253 5.18328 20.2002 4.97069 20.2002C4.75809 20.2002 4.57063 20.2176 4.38316 20.2562C4.21502 20.2891 4.05461 20.3374 3.9 20.4031C3.68547 20.4959 3.49994 20.6061 3.34339 20.7395C3.26416 20.8052 3.19265 20.8767 3.12887 20.954C3.07669 21.0178 3.03224 21.0816 2.99358 21.1492C2.89309 21.329 2.84091 21.5222 2.84091 21.7349C2.84091 21.8856 2.86216 22.046 2.90468 22.2123C2.94527 22.3804 3.01291 22.5505 3.10181 22.7206L3.38591 23.2637L3.44389 23.3739L3.46129 23.4106L4.81414 26.0025C4.85086 26.0721 4.88951 26.1378 4.93396 26.2016C4.97648 26.2635 5.02287 26.3195 5.07312 26.3736L5.07698 26.3775C5.12143 26.4239 5.17168 26.4703 5.22386 26.5128C5.25478 26.5379 5.28764 26.5611 5.32049 26.5843C5.35335 26.6075 5.38621 26.6288 5.42099 26.65C5.68383 26.8027 5.99886 26.88 6.36992 26.88C6.74099 26.88 7.04249 26.8105 7.25894 26.6732C7.4754 26.536 7.62421 26.3717 7.70539 26.1804L7.56623 26.1378L7.56237 26.132ZM4.18023 21.3908C4.18023 21.3077 4.18796 21.2265 4.19956 21.1473C4.21309 21.0642 4.23241 20.983 4.25754 20.9037C4.30972 20.7453 4.38703 20.6138 4.49332 20.5094C4.59575 20.407 4.7291 20.3548 4.88372 20.3548C5.00354 20.3548 5.09631 20.3993 5.16975 20.4921C5.20647 20.5365 5.23932 20.5906 5.26638 20.6525C5.29151 20.7124 5.31276 20.7762 5.33016 20.8516C5.36301 21.0004 5.38041 21.1647 5.38041 21.3425C5.38041 21.5725 5.35142 21.7793 5.29537 21.9687C5.23932 22.1581 5.14849 22.3263 5.02673 22.4751C5.00354 22.5041 4.97842 22.5312 4.95136 22.5563C4.88565 22.624 4.81028 22.6839 4.72331 22.738C4.69818 22.7535 4.67112 22.7709 4.64213 22.7844C4.63247 22.7921 4.62667 22.796 4.61701 22.7979C4.61315 22.7979 4.61121 22.8018 4.60928 22.8018L4.56676 22.7148C4.42181 22.4249 4.32325 22.1697 4.26913 21.9475C4.21309 21.7252 4.18603 21.5396 4.18603 21.3889L4.18023 21.3908Z" fill="#D2FF00"/>
<path d="M3.44384 23.2367C3.42452 23.2445 3.40326 23.2522 3.38587 23.2599L3.44191 23.3701L3.45931 23.4068C3.47477 23.3972 3.49216 23.3894 3.50762 23.3798L3.44191 23.2367H3.44384ZM4.6073 22.8038C4.58604 22.8154 4.56478 22.825 4.53966 22.8366L4.60537 22.9932C4.63242 22.9816 4.65948 22.9719 4.68461 22.9603L4.6073 22.8038ZM4.6073 22.8018C4.6073 22.8018 4.6131 22.8018 4.61503 22.798C4.61117 22.798 4.60923 22.8018 4.6073 22.8018ZM6.22686 26.0297L6.14762 25.8712C6.13216 25.8828 6.11283 25.8905 6.09737 25.9021C6.01813 25.9504 5.93503 25.9968 5.85193 26.0393C5.77076 26.0818 5.68765 26.1224 5.60455 26.163C5.60455 26.163 5.60068 26.163 5.59875 26.163C5.51371 26.2036 5.42868 26.2384 5.33977 26.2732C5.27793 26.2983 5.21608 26.3215 5.15231 26.3428C5.15231 26.3428 5.14844 26.3428 5.14651 26.3428C5.12332 26.3544 5.10013 26.3602 5.075 26.3698C5.11945 26.4162 5.1697 26.4626 5.22188 26.5051C5.28953 26.48 5.35524 26.4549 5.42095 26.4278C5.48859 26.4008 5.55237 26.3737 5.61614 26.3447C5.68185 26.3176 5.7437 26.2867 5.80554 26.2558C5.86932 26.2249 5.92923 26.1939 5.99108 26.1611C6.07225 26.1205 6.15149 26.0741 6.22879 26.0297V26.0258L6.22686 26.0297ZM7.84835 23.7779C7.84835 23.8088 7.84835 23.8398 7.84256 23.8726C7.84256 23.8978 7.83676 23.9229 7.83096 23.948C7.8271 23.9693 7.82323 23.9925 7.81743 24.0157C7.81357 24.0369 7.80777 24.0582 7.80197 24.0794C7.79617 24.1026 7.78844 24.1258 7.78071 24.149C7.78071 24.1548 7.77685 24.1587 7.77491 24.1625C7.77491 24.1625 7.79037 24.1529 7.79811 24.1471C7.83483 24.12 7.86768 24.091 7.89474 24.0582C7.97204 23.9731 8.01263 23.8784 8.01263 23.7779H7.84835ZM5.07307 26.3698C5.05181 26.3776 5.03248 26.3834 5.00929 26.3911C5.03055 26.3853 5.05181 26.3776 5.075 26.3718L5.07307 26.3698ZM3.44384 23.2367C3.42452 23.2445 3.40326 23.2522 3.38587 23.2599L3.44191 23.3701L3.45931 23.4068C3.47477 23.3972 3.49216 23.3894 3.50762 23.3798L3.44191 23.2367H3.44384ZM4.6073 22.8038C4.58604 22.8154 4.56478 22.825 4.53966 22.8366L4.60537 22.9932C4.63242 22.9816 4.65948 22.9719 4.68461 22.9603L4.6073 22.8038ZM5.07307 26.3698C5.05181 26.3776 5.03248 26.3834 5.00929 26.3911C5.03055 26.3853 5.05181 26.3776 5.075 26.3718L5.07307 26.3698ZM4.6073 22.8018C4.6073 22.8018 4.6131 22.8018 4.61503 22.798C4.61117 22.798 4.60923 22.8018 4.6073 22.8018ZM6.22686 26.0297L6.14762 25.8712C6.13216 25.8828 6.11283 25.8905 6.09737 25.9021C6.01813 25.9504 5.93503 25.9968 5.85193 26.0393C5.77076 26.0818 5.68765 26.1224 5.60455 26.163C5.60455 26.163 5.60068 26.163 5.59875 26.163C5.51371 26.2036 5.42868 26.2384 5.33977 26.2732C5.27793 26.2983 5.21608 26.3215 5.15231 26.3428C5.15231 26.3428 5.14844 26.3428 5.14651 26.3428C5.12332 26.3544 5.10013 26.3602 5.075 26.3698C5.11945 26.4162 5.1697 26.4626 5.22188 26.5051C5.28953 26.48 5.35524 26.4549 5.42095 26.4278C5.48859 26.4008 5.55237 26.3737 5.61614 26.3447C5.68185 26.3176 5.7437 26.2867 5.80554 26.2558C5.86932 26.2249 5.92923 26.1939 5.99108 26.1611C6.07225 26.1205 6.15149 26.0741 6.22879 26.0297V26.0258L6.22686 26.0297ZM7.84835 23.7779C7.84835 23.8088 7.84835 23.8398 7.84256 23.8726C7.84256 23.8978 7.83676 23.9229 7.83096 23.948C7.8271 23.9693 7.82323 23.9925 7.81743 24.0157C7.81357 24.0369 7.80777 24.0582 7.80197 24.0794C7.79617 24.1026 7.78844 24.1258 7.78071 24.149C7.78071 24.1548 7.77685 24.1587 7.77491 24.1625C7.77491 24.1625 7.79037 24.1529 7.79811 24.1471C7.83483 24.12 7.86768 24.091 7.89474 24.0582C7.97204 23.9731 8.01263 23.8784 8.01263 23.7779H7.84835ZM7.84835 23.7779C7.84835 23.8088 7.84835 23.8398 7.84256 23.8726C7.84256 23.8978 7.83676 23.9229 7.83096 23.948C7.8271 23.9693 7.82323 23.9925 7.81743 24.0157C7.81357 24.0369 7.80777 24.0582 7.80197 24.0794C7.79617 24.1026 7.78844 24.1258 7.78071 24.149C7.78071 24.1548 7.77685 24.1587 7.77491 24.1625C7.77491 24.1625 7.79037 24.1529 7.79811 24.1471C7.83483 24.12 7.86768 24.091 7.89474 24.0582C7.97204 23.9731 8.01263 23.8784 8.01263 23.7779H7.84835ZM7.77298 24.1645C7.77298 24.1761 7.76718 24.1857 7.76139 24.1954C7.76718 24.1838 7.77105 24.1761 7.77491 24.1645H7.77298ZM6.22686 26.0297L6.14762 25.8712C6.13216 25.8828 6.11283 25.8905 6.09737 25.9021C6.01813 25.9504 5.93503 25.9968 5.85193 26.0393C5.77076 26.0818 5.68765 26.1224 5.60455 26.163C5.60455 26.163 5.60068 26.163 5.59875 26.163C5.51371 26.2036 5.42868 26.2384 5.33977 26.2732C5.27793 26.2983 5.21608 26.3215 5.15231 26.3428C5.15231 26.3428 5.14844 26.3428 5.14651 26.3428C5.12332 26.3544 5.10013 26.3602 5.075 26.3698C5.11945 26.4162 5.1697 26.4626 5.22188 26.5051C5.28953 26.48 5.35524 26.4549 5.42095 26.4278C5.48859 26.4008 5.55237 26.3737 5.61614 26.3447C5.68185 26.3176 5.7437 26.2867 5.80554 26.2558C5.86932 26.2249 5.92923 26.1939 5.99108 26.1611C6.07225 26.1205 6.15149 26.0741 6.22879 26.0297V26.0258L6.22686 26.0297ZM4.6073 22.8018C4.6073 22.8018 4.6131 22.8018 4.61503 22.798C4.61117 22.798 4.60923 22.8018 4.6073 22.8018ZM5.07307 26.3698C5.05181 26.3776 5.03248 26.3834 5.00929 26.3911C5.03055 26.3853 5.05181 26.3776 5.075 26.3718L5.07307 26.3698ZM4.6073 22.8038C4.58604 22.8154 4.56478 22.825 4.53966 22.8366L4.60537 22.9932C4.63242 22.9816 4.65948 22.9719 4.68461 22.9603L4.6073 22.8038ZM3.44384 23.2367C3.42452 23.2445 3.40326 23.2522 3.38587 23.2599L3.44191 23.3701L3.45931 23.4068C3.47477 23.3972 3.49216 23.3894 3.50762 23.3798L3.44191 23.2367H3.44384ZM3.09983 22.7168L3.38393 23.2599L3.0979 22.7168H3.09983Z" fill="#D2FF00"/>
</g>
<defs>
<clipPath id="clip0_365_2">
<rect width="30.36" height="22.04" fill="white" transform="translate(0.800049 4.95996)"/>
</clipPath>
</defs>
</svg>
